<mxfile host="app.diagrams.net" modified="2021-08-09T15:09:20.302Z" agent="5.0 (Windows NT 10.0; Win64; x64) AppleWebKit/537.36 (KHTML, like Gecko) Chrome/92.0.4515.131 Safari/537.36" etag="CJyOh3mEBtYZJaOa3-jS" version="14.9.5" type="github">
  <diagram id="sSYY12ysOLyaaytE1oME" name="Page-1">
    <mxGraphModel dx="313" dy="450" grid="1" gridSize="10" guides="1" tooltips="1" connect="0" arrows="1" fold="1" page="1" pageScale="1" pageWidth="850" pageHeight="1100" math="0" shadow="0">
      <root>
        <mxCell id="0" />
        <mxCell id="1" parent="0" />
        <mxCell id="1H7hiKUzIbYEdB99mQqB-1" value="" style="rounded=0;whiteSpace=wrap;html=1;" vertex="1" parent="1">
          <mxGeometry x="10" y="10" width="120" height="40" as="geometry" />
        </mxCell>
        <mxCell id="1H7hiKUzIbYEdB99mQqB-2" value="Gender" style="text;html=1;strokeColor=none;fillColor=none;align=center;verticalAlign=middle;whiteSpace=wrap;rounded=0;" vertex="1" parent="1">
          <mxGeometry x="20" y="20" width="40" height="20" as="geometry" />
        </mxCell>
        <mxCell id="1H7hiKUzIbYEdB99mQqB-4" value="" style="rounded=0;whiteSpace=wrap;html=1;" vertex="1" parent="1">
          <mxGeometry x="150" y="10" width="110" height="40" as="geometry" />
        </mxCell>
        <mxCell id="1H7hiKUzIbYEdB99mQqB-5" value="Name" style="text;html=1;strokeColor=none;fillColor=none;align=center;verticalAlign=middle;whiteSpace=wrap;rounded=0;" vertex="1" parent="1">
          <mxGeometry x="160" y="20" width="40" height="20" as="geometry" />
        </mxCell>
        <mxCell id="1H7hiKUzIbYEdB99mQqB-6" value="" style="whiteSpace=wrap;html=1;aspect=fixed;" vertex="1" parent="1">
          <mxGeometry x="10" y="80" width="80" height="80" as="geometry" />
        </mxCell>
        <mxCell id="1H7hiKUzIbYEdB99mQqB-7" value="Picture" style="text;html=1;strokeColor=none;fillColor=none;align=center;verticalAlign=middle;whiteSpace=wrap;rounded=0;" vertex="1" parent="1">
          <mxGeometry x="30" y="110" width="40" height="20" as="geometry" />
        </mxCell>
        <mxCell id="1H7hiKUzIbYEdB99mQqB-8" value="Information" style="text;html=1;strokeColor=none;fillColor=none;align=center;verticalAlign=middle;whiteSpace=wrap;rounded=0;" vertex="1" parent="1">
          <mxGeometry x="20" y="170" width="40" height="20" as="geometry" />
        </mxCell>
        <mxCell id="1H7hiKUzIbYEdB99mQqB-11" value="" style="whiteSpace=wrap;html=1;aspect=fixed;" vertex="1" parent="1">
          <mxGeometry x="10" y="200" width="80" height="80" as="geometry" />
        </mxCell>
        <mxCell id="1H7hiKUzIbYEdB99mQqB-12" value="Picture" style="text;html=1;strokeColor=none;fillColor=none;align=center;verticalAlign=middle;whiteSpace=wrap;rounded=0;" vertex="1" parent="1">
          <mxGeometry x="20" y="220" width="40" height="20" as="geometry" />
        </mxCell>
        <mxCell id="1H7hiKUzIbYEdB99mQqB-13" value="Information" style="text;html=1;strokeColor=none;fillColor=none;align=center;verticalAlign=middle;whiteSpace=wrap;rounded=0;" vertex="1" parent="1">
          <mxGeometry x="20" y="300" width="40" height="20" as="geometry" />
        </mxCell>
      </root>
    </mxGraphModel>
  </diagram>
</mxfile>
